<svg xmlns="http://www.w3.org/2000/svg" width="64" height="64"><linearGradient id="a" x1="32" x2="32" y1="8" y2="56" gradientUnits="userSpaceOnUse" spreadMethod="reflect"><stop offset="0" stop-color="#1a6dff"/><stop offset="1" stop-color="#c822ff"/></linearGradient><path fill="url(#a)" d="M42.575 56h-21.15c-1.733 0-3.346-.962-4.208-2.511L6.642 34.483a5.14 5.14 0 0 1 0-4.967L17.217 10.51C18.079 8.962 19.691 8 21.425 8h21.15c1.733 0 3.346.962 4.208 2.511l10.575 19.006a5.14 5.14 0 0 1 0 4.967L46.783 53.489C45.921 55.038 44.309 56 42.575 56zm-23.61-3.483c.509.915 1.452 1.483 2.46 1.483h21.15c1.008 0 1.951-.568 2.46-1.483L55.61 33.511a3.125 3.125 0 0 0 0-3.021L45.035 11.483c-.509-.915-1.452-1.483-2.46-1.483h-21.15c-1.008 0-1.951.568-2.46 1.483L8.39 30.489a3.125 3.125 0 0 0 0 3.021l10.575 19.007z"/><linearGradient id="b" x1="32" x2="32" y1="28" y2="36" gradientUnits="userSpaceOnUse" spreadMethod="reflect"><stop offset="0" stop-color="#6dc7ff"/><stop offset="1" stop-color="#e6abff"/></linearGradient><path fill="url(#b)" d="M28 28h8v8h-8z"/><linearGradient id="c" x1="32" x2="32" y1="8.75" y2="55.653" gradientUnits="userSpaceOnUse" spreadMethod="reflect"><stop offset="0" stop-color="#1a6dff"/><stop offset="1" stop-color="#c822ff"/></linearGradient><path fill="url(#c)" d="M45 29v-2h-4v-4h-4v-4h-2v4h-2v-4h-2v4h-2v-4h-2v4h-4v4h-4v2h4v2h-4v2h4v2h-4v2h4v4h4v4h2v-4h2v4h2v-4h2v4h2v-4h4v-4h4v-2h-4v-2h4v-2h-4v-2h4zm-6 10H25V25h14v14z"/></svg>